<?xml version="1.0" standalone="no"?>
 <!DOCTYPE svg PUBLIC "-//W3C//DTD SVG 1.1//EN" 
 "http://www.w3.org/Graphics/SVG/1.1/DTD/svg11.dtd"> 
<svg xmlns="http://www.w3.org/2000/svg" version="1.1" 
    width="29.7002cm" height="21.0007cm" viewBox="0 0 116930 82680 ">
<title>SVG Picture created as schema.sch.svg date 2015/10/22 00:36:35 </title>
  <desc>Picture generated by Eeschema-SVG </desc>
<g style="fill:#000000; fill-opacity:1;stroke:#000000; stroke-opacity:1;
stroke-linecap:round; stroke-linejoin:round; "
 transform="translate(0 0) scale(1 1)">
</g>
<g style="fill:#000000; fill-opacity:0.0; 
stroke:#000000; stroke-width:0; stroke-opacity:1; 
stroke-linecap:round; stroke-linejoin:round;">
</g>
<g style="fill:#000000; fill-opacity:0.0; 
stroke:#000000; stroke-width:120; stroke-opacity:1; 
stroke-linecap:round; stroke-linejoin:round;">
<circle cx="51500" cy="32500" r="1110" /> 
</g>
<g style="fill:#000000; fill-opacity:0.0; 
stroke:#000000; stroke-width:60; stroke-opacity:1; 
stroke-linecap:round; stroke-linejoin:round;">
<polyline fill="none;"
points="51000,32500
51250,32500
" /> 
<polyline fill="none;"
points="52000,31500
51250,32250
" /> 
<polyline fill="none;"
points="52000,33500
51250,32750
" /> 
</g>
<g style="fill:#000000; fill-opacity:1.0; 
stroke:#000000; stroke-width:200; stroke-opacity:1; 
stroke-linecap:round; stroke-linejoin:round;">
<polyline style="fill-rule:evenodd;"
points="51250,33250
51250,31750
51250,31750
" /> 
</g>
<g style="fill:#000000; fill-opacity:1.0; 
stroke:#000000; stroke-width:60; stroke-opacity:1; 
stroke-linecap:round; stroke-linejoin:round;">
<polyline style="fill-rule:evenodd;"
points="51550,31750
51750,31950
51350,32150
51550,31750
51550,31750
" /> 
</g>
<g style="fill:#000000; fill-opacity:0.0; 
stroke:#000000; stroke-width:60; stroke-opacity:1; 
stroke-linecap:round; stroke-linejoin:round;">
<path d="M52000 31500
L52000 30500
" />
<path d="M51610 31100
L51610 30930
" />
<path d="M51880 30860
L51880 31100
L51380 31100
L51380 30860
" />
<path d="M52580 30860
L52580 31140
" />
<path d="M52580 31000
L52080 31000
L52150 31050
L52200 31100
L52220 31140
" />
<path d="M52000 33500
L52000 34500
" />
<path d="M51830 33850
L51850 33870
L51880 33940
L51880 33990
L51850 34060
L51800 34110
L51760 34130
L51660 34150
L51590 34150
L51500 34130
L51450 34110
L51400 34060
L51380 33990
L51380 33940
L51400 33870
L51420 33850
" />
<path d="M52120 34140
L52100 34120
L52080 34070
L52080 33950
L52100 33910
L52120 33880
L52170 33860
L52220 33860
L52290 33880
L52580 34170
L52580 33860
" />
<path d="M51000 32500
L49000 32500
" />
<path d="M50040 32110
L50110 32140
L50130 32160
L50150 32210
L50150 32280
L50130 32330
L50110 32350
L50060 32380
L49870 32380
L49870 31880
L50040 31880
L50080 31900
L50110 31920
L50130 31970
L50130 32020
L50110 32070
L50080 32090
L50040 32110
L49870 32110
" />
<path d="M49830 32580
L50140 32580
L49970 32770
L50050 32770
L50090 32790
L50120 32810
L50140 32860
L50140 32980
L50120 33030
L50090 33050
L50050 33080
L49900 33080
L49860 33050
L49830 33030
" />
<path d="M53450 33550
L53400 33530
L53360 33480
L53290 33410
L53240 33390
L53190 33390
" />
<path d="M53210 33510
L53170 33480
L53120 33430
L53100 33340
L53100 33170
L53120 33080
L53170 33030
L53210 33010
L53310 33010
L53360 33030
L53400 33080
L53430 33170
L53430 33340
L53400 33430
L53360 33480
L53310 33510
L53210 33510
" />
<path d="M53620 33050
L53640 33030
L53690 33010
L53810 33010
L53850 33030
L53880 33050
L53900 33100
L53900 33150
L53880 33220
L53590 33510
L53900 33510
" />
<path d="M53290 32490
L53360 32520
L53380 32540
L53400 32590
L53400 32660
L53380 32710
L53360 32730
L53310 32760
L53120 32760
L53120 32260
L53290 32260
L53330 32280
L53360 32300
L53380 32350
L53380 32400
L53360 32450
L53330 32470
L53290 32490
L53120 32490
" />
<path d="M53620 32760
L53620 32260
L53740 32260
L53810 32280
L53860 32330
L53880 32380
L53900 32470
L53900 32540
L53880 32640
L53860 32680
L53810 32730
L53740 32760
L53620 32760
" />
<path d="M54380 32760
L54100 32760
" />
<path d="M54240 32760
L54240 32260
L54190 32330
L54140 32380
L54100 32400
" />
<path d="M54810 32420
L54810 32760
" />
<path d="M54690 32230
L54580 32590
L54880 32590
" />
<path d="M55170 32260
L55220 32260
L55270 32280
L55290 32300
L55320 32350
L55340 32450
L55340 32570
L55320 32660
L55290 32710
L55270 32730
L55220 32760
L55170 32760
L55130 32730
L55100 32710
L55080 32660
L55060 32570
L55060 32450
L55080 32350
L55100 32300
L55130 32280
L55170 32260
" />
</g>
<g style="fill:#000000; fill-opacity:0.0; 
stroke:#000000; stroke-width:0; stroke-opacity:1; 
stroke-linecap:round; stroke-linejoin:round;">
</g>
<g style="fill:#000000; fill-opacity:0.0; 
stroke:#000000; stroke-width:120; stroke-opacity:1; 
stroke-linecap:round; stroke-linejoin:round;">
<circle cx="65000" cy="32500" r="1110" /> 
</g>
<g style="fill:#000000; fill-opacity:0.0; 
stroke:#000000; stroke-width:60; stroke-opacity:1; 
stroke-linecap:round; stroke-linejoin:round;">
<polyline fill="none;"
points="65500,32500
65250,32500
" /> 
<polyline fill="none;"
points="64500,31500
65250,32250
" /> 
<polyline fill="none;"
points="64500,33500
65250,32750
" /> 
</g>
<g style="fill:#000000; fill-opacity:1.0; 
stroke:#000000; stroke-width:200; stroke-opacity:1; 
stroke-linecap:round; stroke-linejoin:round;">
<polyline style="fill-rule:evenodd;"
points="65250,33250
65250,31750
65250,31750
" /> 
</g>
<g style="fill:#000000; fill-opacity:1.0; 
stroke:#000000; stroke-width:60; stroke-opacity:1; 
stroke-linecap:round; stroke-linejoin:round;">
<polyline style="fill-rule:evenodd;"
points="64950,31750
64750,31950
65150,32150
64950,31750
64950,31750
" /> 
</g>
<g style="fill:#000000; fill-opacity:0.0; 
stroke:#000000; stroke-width:60; stroke-opacity:1; 
stroke-linecap:round; stroke-linejoin:round;">
<path d="M64500 31500
L64500 30500
" />
<path d="M64110 31100
L64110 30930
" />
<path d="M64380 30860
L64380 31100
L63880 31100
L63880 30860
" />
<path d="M65080 30860
L65080 31140
" />
<path d="M65080 31000
L64580 31000
L64650 31050
L64700 31100
L64720 31140
" />
<path d="M64500 33500
L64500 34500
" />
<path d="M64330 33850
L64350 33870
L64380 33940
L64380 33990
L64350 34060
L64300 34110
L64260 34130
L64160 34150
L64090 34150
L64000 34130
L63950 34110
L63900 34060
L63880 33990
L63880 33940
L63900 33870
L63920 33850
" />
<path d="M64620 34140
L64600 34120
L64580 34070
L64580 33950
L64600 33910
L64620 33880
L64670 33860
L64720 33860
L64790 33880
L65080 34170
L65080 33860
" />
<path d="M65500 32500
L67500 32500
" />
<path d="M66540 32110
L66610 32140
L66630 32160
L66650 32210
L66650 32280
L66630 32330
L66610 32350
L66560 32380
L66370 32380
L66370 31880
L66540 31880
L66580 31900
L66610 31920
L66630 31970
L66630 32020
L66610 32070
L66580 32090
L66540 32110
L66370 32110
" />
<path d="M66330 32580
L66640 32580
L66470 32770
L66550 32770
L66590 32790
L66620 32810
L66640 32860
L66640 32980
L66620 33030
L66590 33050
L66550 33080
L66400 33080
L66360 33050
L66330 33030
" />
<path d="M62950 33550
L62900 33530
L62860 33480
L62790 33410
L62740 33390
L62690 33390
" />
<path d="M62710 33510
L62670 33480
L62620 33430
L62600 33340
L62600 33170
L62620 33080
L62670 33030
L62710 33010
L62810 33010
L62860 33030
L62900 33080
L62930 33170
L62930 33340
L62900 33430
L62860 33480
L62810 33510
L62710 33510
" />
<path d="M63350 33170
L63350 33510
" />
<path d="M63230 32980
L63120 33340
L63420 33340
" />
<path d="M61350 32490
L61420 32520
L61440 32540
L61460 32590
L61460 32660
L61440 32710
L61420 32730
L61370 32760
L61180 32760
L61180 32260
L61350 32260
L61390 32280
L61420 32300
L61440 32350
L61440 32400
L61420 32450
L61390 32470
L61350 32490
L61180 32490
" />
<path d="M61680 32760
L61680 32260
L61800 32260
L61870 32280
L61920 32330
L61940 32380
L61960 32470
L61960 32540
L61940 32640
L61920 32680
L61870 32730
L61800 32760
L61680 32760
" />
<path d="M62440 32760
L62160 32760
" />
<path d="M62300 32760
L62300 32260
L62250 32330
L62200 32380
L62160 32400
" />
<path d="M62870 32420
L62870 32760
" />
<path d="M62750 32230
L62640 32590
L62940 32590
" />
<path d="M63230 32260
L63280 32260
L63330 32280
L63350 32300
L63380 32350
L63400 32450
L63400 32570
L63380 32660
L63350 32710
L63330 32730
L63280 32760
L63230 32760
L63190 32730
L63160 32710
L63140 32660
L63120 32570
L63120 32450
L63140 32350
L63160 32300
L63190 32280
L63230 32260
" />
</g>
<g style="fill:#000000; fill-opacity:0.0; 
stroke:#000000; stroke-width:0; stroke-opacity:1; 
stroke-linecap:round; stroke-linejoin:round;">
</g>
<g style="fill:#000000; fill-opacity:0.0; 
stroke:#000000; stroke-width:120; stroke-opacity:1; 
stroke-linecap:round; stroke-linejoin:round;">
<circle cx="51500" cy="45000" r="1110" /> 
</g>
<g style="fill:#000000; fill-opacity:0.0; 
stroke:#000000; stroke-width:60; stroke-opacity:1; 
stroke-linecap:round; stroke-linejoin:round;">
<polyline fill="none;"
points="51000,45000
51250,45000
" /> 
<polyline fill="none;"
points="52000,46000
51250,45250
" /> 
<polyline fill="none;"
points="52000,44000
51250,44750
" /> 
</g>
<g style="fill:#000000; fill-opacity:1.0; 
stroke:#000000; stroke-width:200; stroke-opacity:1; 
stroke-linecap:round; stroke-linejoin:round;">
<polyline style="fill-rule:evenodd;"
points="51250,44250
51250,45750
51250,45750
" /> 
</g>
<g style="fill:#000000; fill-opacity:1.0; 
stroke:#000000; stroke-width:60; stroke-opacity:1; 
stroke-linecap:round; stroke-linejoin:round;">
<polyline style="fill-rule:evenodd;"
points="51490,45700
51690,45500
51900,45900
51490,45700
51490,45700
" /> 
</g>
<g style="fill:#000000; fill-opacity:0.0; 
stroke:#000000; stroke-width:60; stroke-opacity:1; 
stroke-linecap:round; stroke-linejoin:round;">
<path d="M52000 46000
L52000 47000
" />
<path d="M51610 46600
L51610 46430
" />
<path d="M51880 46360
L51880 46600
L51380 46600
L51380 46360
" />
<path d="M52580 46360
L52580 46640
" />
<path d="M52580 46500
L52080 46500
L52150 46550
L52200 46600
L52220 46640
" />
<path d="M52000 44000
L52000 43000
" />
<path d="M51830 43350
L51850 43370
L51880 43440
L51880 43490
L51850 43560
L51800 43610
L51760 43630
L51660 43650
L51590 43650
L51500 43630
L51450 43610
L51400 43560
L51380 43490
L51380 43440
L51400 43370
L51420 43350
" />
<path d="M52120 43640
L52100 43620
L52080 43570
L52080 43450
L52100 43410
L52120 43380
L52170 43360
L52220 43360
L52290 43380
L52580 43670
L52580 43360
" />
<path d="M51000 45000
L49000 45000
" />
<path d="M50040 44610
L50110 44640
L50130 44660
L50150 44710
L50150 44780
L50130 44830
L50110 44850
L50060 44880
L49870 44880
L49870 44380
L50040 44380
L50080 44400
L50110 44420
L50130 44470
L50130 44520
L50110 44570
L50080 44590
L50040 44610
L49870 44610
" />
<path d="M49830 45080
L50140 45080
L49970 45270
L50050 45270
L50090 45290
L50120 45310
L50140 45360
L50140 45480
L50120 45530
L50090 45550
L50050 45580
L49900 45580
L49860 45550
L49830 45530
" />
<path d="M53450 44490
L53400 44470
L53360 44420
L53290 44350
L53240 44330
L53190 44330
" />
<path d="M53210 44450
L53170 44420
L53120 44370
L53100 44280
L53100 44110
L53120 44020
L53170 43970
L53210 43950
L53310 43950
L53360 43970
L53400 44020
L53430 44110
L53430 44280
L53400 44370
L53360 44420
L53310 44450
L53210 44450
" />
<path d="M53590 43950
L53900 43950
L53730 44140
L53810 44140
L53850 44160
L53880 44180
L53900 44230
L53900 44350
L53880 44400
L53850 44420
L53810 44450
L53660 44450
L53620 44420
L53590 44400
" />
<path d="M53290 44930
L53360 44960
L53380 44980
L53400 45030
L53400 45100
L53380 45150
L53360 45170
L53310 45200
L53120 45200
L53120 44700
L53290 44700
L53330 44720
L53360 44740
L53380 44790
L53380 44840
L53360 44890
L53330 44910
L53290 44930
L53120 44930
" />
<path d="M53620 45200
L53620 44700
L53740 44700
L53810 44720
L53860 44770
L53880 44820
L53900 44910
L53900 44980
L53880 45080
L53860 45120
L53810 45170
L53740 45200
L53620 45200
" />
<path d="M54380 45200
L54100 45200
" />
<path d="M54240 45200
L54240 44700
L54190 44770
L54140 44820
L54100 44840
" />
<path d="M54550 44700
L54860 44700
L54690 44890
L54770 44890
L54810 44910
L54840 44930
L54860 44980
L54860 45100
L54840 45150
L54810 45170
L54770 45200
L54620 45200
L54580 45170
L54550 45150
" />
<path d="M55100 45200
L55200 45200
L55250 45170
L55270 45150
L55320 45080
L55340 44980
L55340 44790
L55320 44740
L55290 44720
L55250 44700
L55150 44700
L55100 44720
L55080 44740
L55060 44790
L55060 44910
L55080 44960
L55100 44980
L55150 45010
L55250 45010
L55290 44980
L55320 44960
L55340 44910
" />
</g>
<g style="fill:#000000; fill-opacity:0.0; 
stroke:#000000; stroke-width:0; stroke-opacity:1; 
stroke-linecap:round; stroke-linejoin:round;">
</g>
<g style="fill:#000000; fill-opacity:0.0; 
stroke:#000000; stroke-width:120; stroke-opacity:1; 
stroke-linecap:round; stroke-linejoin:round;">
<circle cx="65000" cy="45000" r="1110" /> 
</g>
<g style="fill:#000000; fill-opacity:0.0; 
stroke:#000000; stroke-width:60; stroke-opacity:1; 
stroke-linecap:round; stroke-linejoin:round;">
<polyline fill="none;"
points="65500,45000
65250,45000
" /> 
<polyline fill="none;"
points="64500,46000
65250,45250
" /> 
<polyline fill="none;"
points="64500,44000
65250,44750
" /> 
</g>
<g style="fill:#000000; fill-opacity:1.0; 
stroke:#000000; stroke-width:200; stroke-opacity:1; 
stroke-linecap:round; stroke-linejoin:round;">
<polyline style="fill-rule:evenodd;"
points="65250,44250
65250,45750
65250,45750
" /> 
</g>
<g style="fill:#000000; fill-opacity:1.0; 
stroke:#000000; stroke-width:60; stroke-opacity:1; 
stroke-linecap:round; stroke-linejoin:round;">
<polyline style="fill-rule:evenodd;"
points="65010,45700
64810,45500
64600,45900
65010,45700
65010,45700
" /> 
</g>
<g style="fill:#000000; fill-opacity:0.0; 
stroke:#000000; stroke-width:60; stroke-opacity:1; 
stroke-linecap:round; stroke-linejoin:round;">
<path d="M64500 46000
L64500 47000
" />
<path d="M64110 46600
L64110 46430
" />
<path d="M64380 46360
L64380 46600
L63880 46600
L63880 46360
" />
<path d="M65080 46360
L65080 46640
" />
<path d="M65080 46500
L64580 46500
L64650 46550
L64700 46600
L64720 46640
" />
<path d="M64500 44000
L64500 43000
" />
<path d="M64330 43350
L64350 43370
L64380 43440
L64380 43490
L64350 43560
L64300 43610
L64260 43630
L64160 43650
L64090 43650
L64000 43630
L63950 43610
L63900 43560
L63880 43490
L63880 43440
L63900 43370
L63920 43350
" />
<path d="M64620 43640
L64600 43620
L64580 43570
L64580 43450
L64600 43410
L64620 43380
L64670 43360
L64720 43360
L64790 43380
L65080 43670
L65080 43360
" />
<path d="M65500 45000
L67500 45000
" />
<path d="M66540 44610
L66610 44640
L66630 44660
L66650 44710
L66650 44780
L66630 44830
L66610 44850
L66560 44880
L66370 44880
L66370 44380
L66540 44380
L66580 44400
L66610 44420
L66630 44470
L66630 44520
L66610 44570
L66580 44590
L66540 44610
L66370 44610
" />
<path d="M66330 45080
L66640 45080
L66470 45270
L66550 45270
L66590 45290
L66620 45310
L66640 45360
L66640 45480
L66620 45530
L66590 45550
L66550 45580
L66400 45580
L66360 45550
L66330 45530
" />
<path d="M62950 44490
L62900 44470
L62860 44420
L62790 44350
L62740 44330
L62690 44330
" />
<path d="M62710 44450
L62670 44420
L62620 44370
L62600 44280
L62600 44110
L62620 44020
L62670 43970
L62710 43950
L62810 43950
L62860 43970
L62900 44020
L62930 44110
L62930 44280
L62900 44370
L62860 44420
L62810 44450
L62710 44450
" />
<path d="M63380 43950
L63140 43950
L63120 44180
L63140 44160
L63190 44140
L63310 44140
L63350 44160
L63380 44180
L63400 44230
L63400 44350
L63380 44400
L63350 44420
L63310 44450
L63190 44450
L63140 44420
L63120 44400
" />
<path d="M61350 44930
L61420 44960
L61440 44980
L61460 45030
L61460 45100
L61440 45150
L61420 45170
L61370 45200
L61180 45200
L61180 44700
L61350 44700
L61390 44720
L61420 44740
L61440 44790
L61440 44840
L61420 44890
L61390 44910
L61350 44930
L61180 44930
" />
<path d="M61680 45200
L61680 44700
L61800 44700
L61870 44720
L61920 44770
L61940 44820
L61960 44910
L61960 44980
L61940 45080
L61920 45120
L61870 45170
L61800 45200
L61680 45200
" />
<path d="M62440 45200
L62160 45200
" />
<path d="M62300 45200
L62300 44700
L62250 44770
L62200 44820
L62160 44840
" />
<path d="M62610 44700
L62920 44700
L62750 44890
L62830 44890
L62870 44910
L62900 44930
L62920 44980
L62920 45100
L62900 45150
L62870 45170
L62830 45200
L62680 45200
L62640 45170
L62610 45150
" />
<path d="M63160 45200
L63260 45200
L63310 45170
L63330 45150
L63380 45080
L63400 44980
L63400 44790
L63380 44740
L63350 44720
L63310 44700
L63210 44700
L63160 44720
L63140 44740
L63120 44790
L63120 44910
L63140 44960
L63160 44980
L63210 45010
L63310 45010
L63350 44980
L63380 44960
L63400 44910
" />
</g>
<g style="fill:#000000; fill-opacity:0.0; 
stroke:#000000; stroke-width:0; stroke-opacity:1; 
stroke-linecap:round; stroke-linejoin:round;">
</g>
<g style="fill:#000000; fill-opacity:0.0; 
stroke:#000000; stroke-width:100; stroke-opacity:1; 
stroke-linecap:round; stroke-linejoin:round;">
<circle cx="41500" cy="35500" r="1110" /> 
</g>
<g style="fill:#000000; fill-opacity:0.0; 
stroke:#000000; stroke-width:60; stroke-opacity:1; 
stroke-linecap:round; stroke-linejoin:round;">
<polyline fill="none;"
points="41000,35500
41250,35500
" /> 
<polyline fill="none;"
points="41250,35250
42000,34500
" /> 
<polyline fill="none;"
points="41250,35750
42000,36500
42000,36500
" /> 
</g>
<g style="fill:#000000; fill-opacity:0.0; 
stroke:#000000; stroke-width:200; stroke-opacity:1; 
stroke-linecap:round; stroke-linejoin:round;">
<polyline fill="none;"
points="41250,34750
41250,36250
41250,36250
" /> 
</g>
<g style="fill:#000000; fill-opacity:1.0; 
stroke:#000000; stroke-width:60; stroke-opacity:1; 
stroke-linecap:round; stroke-linejoin:round;">
<polyline style="fill-rule:evenodd;"
points="41500,36200
41700,36000
41900,36400
41500,36200
41500,36200
" /> 
</g>
<g style="fill:#000000; fill-opacity:0.0; 
stroke:#000000; stroke-width:60; stroke-opacity:1; 
stroke-linecap:round; stroke-linejoin:round;">
<path d="M42000 34500
L42000 33500
" />
<path d="M41830 33850
L41850 33870
L41880 33940
L41880 33990
L41850 34060
L41800 34110
L41760 34130
L41660 34150
L41590 34150
L41500 34130
L41450 34110
L41400 34060
L41380 33990
L41380 33940
L41400 33870
L41420 33850
" />
<path d="M42580 33860
L42580 34140
" />
<path d="M42580 34000
L42080 34000
L42150 34050
L42200 34100
L42220 34140
" />
<path d="M41000 35500
L39000 35500
" />
<path d="M40040 35110
L40110 35140
L40130 35160
L40150 35210
L40150 35280
L40130 35330
L40110 35350
L40060 35380
L39870 35380
L39870 34880
L40040 34880
L40080 34900
L40110 34920
L40130 34970
L40130 35020
L40110 35070
L40080 35090
L40040 35110
L39870 35110
" />
<path d="M39860 35620
L39880 35600
L39930 35580
L40050 35580
L40090 35600
L40120 35620
L40140 35670
L40140 35720
L40120 35790
L39830 36080
L40140 36080
" />
<path d="M42000 36500
L42000 37500
" />
<path d="M41610 37100
L41610 36930
" />
<path d="M41880 36860
L41880 37100
L41380 37100
L41380 36860
" />
<path d="M42080 37170
L42080 36860
L42270 37030
L42270 36950
L42290 36910
L42310 36880
L42360 36860
L42480 36860
L42530 36880
L42550 36910
L42580 36950
L42580 37100
L42550 37140
L42530 37170
" />
<path d="M43450 34990
L43400 34970
L43360 34920
L43290 34850
L43240 34830
L43190 34830
" />
<path d="M43210 34950
L43170 34920
L43120 34870
L43100 34780
L43100 34610
L43120 34520
L43170 34470
L43210 34450
L43310 34450
L43360 34470
L43400 34520
L43430 34610
L43430 34780
L43400 34870
L43360 34920
L43310 34950
L43210 34950
" />
<path d="M43900 34950
L43620 34950
" />
<path d="M43760 34950
L43760 34450
L43710 34520
L43660 34570
L43620 34590
" />
<path d="M43290 35430
L43360 35460
L43380 35480
L43400 35530
L43400 35600
L43380 35650
L43360 35670
L43310 35700
L43120 35700
L43120 35200
L43290 35200
L43330 35220
L43360 35240
L43380 35290
L43380 35340
L43360 35390
L43330 35410
L43290 35430
L43120 35430
" />
<path d="M43900 35650
L43880 35670
L43810 35700
L43760 35700
L43690 35670
L43640 35620
L43620 35580
L43600 35480
L43600 35410
L43620 35320
L43640 35270
L43690 35220
L43760 35200
L43810 35200
L43880 35220
L43900 35240
" />
<path d="M44360 35200
L44120 35200
L44100 35430
L44120 35410
L44170 35390
L44290 35390
L44330 35410
L44360 35430
L44380 35480
L44380 35600
L44360 35650
L44330 35670
L44290 35700
L44170 35700
L44120 35670
L44100 35650
" />
<path d="M44810 35360
L44810 35700
" />
<path d="M44690 35170
L44580 35530
L44880 35530
" />
<path d="M45030 35200
L45360 35200
L45150 35700
" />
</g>
<g style="fill:#000000; fill-opacity:0.0; 
stroke:#000000; stroke-width:0; stroke-opacity:1; 
stroke-linecap:round; stroke-linejoin:round;">
</g>
<g style="fill:#000000; fill-opacity:0.0; 
stroke:#000000; stroke-width:100; stroke-opacity:1; 
stroke-linecap:round; stroke-linejoin:round;">
<circle cx="73500" cy="35500" r="1110" /> 
</g>
<g style="fill:#000000; fill-opacity:0.0; 
stroke:#000000; stroke-width:60; stroke-opacity:1; 
stroke-linecap:round; stroke-linejoin:round;">
<polyline fill="none;"
points="74000,35500
73750,35500
" /> 
<polyline fill="none;"
points="73750,35250
73000,34500
" /> 
<polyline fill="none;"
points="73750,35750
73000,36500
73000,36500
" /> 
</g>
<g style="fill:#000000; fill-opacity:0.0; 
stroke:#000000; stroke-width:200; stroke-opacity:1; 
stroke-linecap:round; stroke-linejoin:round;">
<polyline fill="none;"
points="73750,34750
73750,36250
73750,36250
" /> 
</g>
<g style="fill:#000000; fill-opacity:1.0; 
stroke:#000000; stroke-width:60; stroke-opacity:1; 
stroke-linecap:round; stroke-linejoin:round;">
<polyline style="fill-rule:evenodd;"
points="73500,36200
73300,36000
73100,36400
73500,36200
73500,36200
" /> 
</g>
<g style="fill:#000000; fill-opacity:0.0; 
stroke:#000000; stroke-width:60; stroke-opacity:1; 
stroke-linecap:round; stroke-linejoin:round;">
<path d="M73000 34500
L73000 33500
" />
<path d="M72830 33850
L72850 33870
L72880 33940
L72880 33990
L72850 34060
L72800 34110
L72760 34130
L72660 34150
L72590 34150
L72500 34130
L72450 34110
L72400 34060
L72380 33990
L72380 33940
L72400 33870
L72420 33850
" />
<path d="M73580 33860
L73580 34140
" />
<path d="M73580 34000
L73080 34000
L73150 34050
L73200 34100
L73220 34140
" />
<path d="M74000 35500
L76000 35500
" />
<path d="M75040 35110
L75110 35140
L75130 35160
L75150 35210
L75150 35280
L75130 35330
L75110 35350
L75060 35380
L74870 35380
L74870 34880
L75040 34880
L75080 34900
L75110 34920
L75130 34970
L75130 35020
L75110 35070
L75080 35090
L75040 35110
L74870 35110
" />
<path d="M74860 35620
L74880 35600
L74930 35580
L75050 35580
L75090 35600
L75120 35620
L75140 35670
L75140 35720
L75120 35790
L74830 36080
L75140 36080
" />
<path d="M73000 36500
L73000 37500
" />
<path d="M72610 37100
L72610 36930
" />
<path d="M72880 36860
L72880 37100
L72380 37100
L72380 36860
" />
<path d="M73080 37170
L73080 36860
L73270 37030
L73270 36950
L73290 36910
L73310 36880
L73360 36860
L73480 36860
L73530 36880
L73550 36910
L73580 36950
L73580 37100
L73550 37140
L73530 37170
" />
<path d="M71450 34990
L71400 34970
L71360 34920
L71290 34850
L71240 34830
L71190 34830
" />
<path d="M71210 34950
L71170 34920
L71120 34870
L71100 34780
L71100 34610
L71120 34520
L71170 34470
L71210 34450
L71310 34450
L71360 34470
L71400 34520
L71430 34610
L71430 34780
L71400 34870
L71360 34920
L71310 34950
L71210 34950
" />
<path d="M71850 34450
L71760 34450
L71710 34470
L71690 34490
L71640 34570
L71620 34660
L71620 34850
L71640 34900
L71660 34920
L71710 34950
L71810 34950
L71850 34920
L71880 34900
L71900 34850
L71900 34730
L71880 34680
L71850 34660
L71810 34640
L71710 34640
L71660 34660
L71640 34680
L71620 34730
" />
<path d="M69850 35430
L69920 35460
L69940 35480
L69960 35530
L69960 35600
L69940 35650
L69920 35670
L69870 35700
L69680 35700
L69680 35200
L69850 35200
L69890 35220
L69920 35240
L69940 35290
L69940 35340
L69920 35390
L69890 35410
L69850 35430
L69680 35430
" />
<path d="M70460 35650
L70440 35670
L70370 35700
L70320 35700
L70250 35670
L70200 35620
L70180 35580
L70160 35480
L70160 35410
L70180 35320
L70200 35270
L70250 35220
L70320 35200
L70370 35200
L70440 35220
L70460 35240
" />
<path d="M70920 35200
L70680 35200
L70660 35430
L70680 35410
L70730 35390
L70850 35390
L70890 35410
L70920 35430
L70940 35480
L70940 35600
L70920 35650
L70890 35670
L70850 35700
L70730 35700
L70680 35670
L70660 35650
" />
<path d="M71370 35360
L71370 35700
" />
<path d="M71250 35170
L71140 35530
L71440 35530
" />
<path d="M71590 35200
L71920 35200
L71710 35700
" />
</g>
<g style="fill:#000000; fill-opacity:0.0; 
stroke:#000000; stroke-width:0; stroke-opacity:1; 
stroke-linecap:round; stroke-linejoin:round;">
</g>
<g style="fill:#000000; fill-opacity:0.0; 
stroke:#000000; stroke-width:100; stroke-opacity:1; 
stroke-linecap:round; stroke-linejoin:round;">
<rect x="45000" y="32100" width="2000" height="800" rx="0" />
</g>
<g style="fill:#000000; fill-opacity:0.0; 
stroke:#000000; stroke-width:60; stroke-opacity:1; 
stroke-linecap:round; stroke-linejoin:round;">
<path d="M47000 32500
L47500 32500
" />
<path d="M45000 32500
L44500 32500
" />
<path d="M45910 33500
L45750 33260
" />
<path d="M45630 33500
L45630 33000
L45820 33000
L45870 33020
L45890 33040
L45910 33090
L45910 33160
L45890 33210
L45870 33230
L45820 33260
L45630 33260
" />
<path d="M46110 33040
L46130 33020
L46180 33000
L46300 33000
L46340 33020
L46370 33040
L46390 33090
L46390 33140
L46370 33210
L46080 33500
L46390 33500
" />
<path d="M45940 32700
L45660 32700
" />
<path d="M45800 32700
L45800 32200
L45750 32270
L45700 32320
L45660 32340
" />
<path d="M46160 32700
L46160 32200
" />
<path d="M46210 32510
L46350 32700
" />
<path d="M46350 32360
L46160 32550
" />
</g>
<g style="fill:#000000; fill-opacity:0.0; 
stroke:#000000; stroke-width:0; stroke-opacity:1; 
stroke-linecap:round; stroke-linejoin:round;">
</g>
<g style="fill:#000000; fill-opacity:0.0; 
stroke:#000000; stroke-width:100; stroke-opacity:1; 
stroke-linecap:round; stroke-linejoin:round;">
<rect x="77500" y="35100" width="2000" height="800" rx="0" />
</g>
<g style="fill:#000000; fill-opacity:0.0; 
stroke:#000000; stroke-width:60; stroke-opacity:1; 
stroke-linecap:round; stroke-linejoin:round;">
<path d="M79500 35500
L80000 35500
" />
<path d="M77500 35500
L77000 35500
" />
<path d="M78410 36500
L78250 36260
" />
<path d="M78130 36500
L78130 36000
L78320 36000
L78370 36020
L78390 36040
L78410 36090
L78410 36160
L78390 36210
L78370 36230
L78320 36260
L78130 36260
" />
<path d="M78840 36160
L78840 36500
" />
<path d="M78720 35970
L78610 36330
L78910 36330
" />
<path d="M78200 35700
L77920 35700
" />
<path d="M78060 35700
L78060 35200
L78010 35270
L77960 35320
L77920 35340
" />
<path d="M78510 35200
L78560 35200
L78610 35220
L78630 35240
L78660 35290
L78680 35390
L78680 35510
L78660 35600
L78630 35650
L78610 35670
L78560 35700
L78510 35700
L78470 35670
L78440 35650
L78420 35600
L78400 35510
L78400 35390
L78420 35290
L78440 35240
L78470 35220
L78510 35200
" />
<path d="M78900 35700
L78900 35200
" />
<path d="M78950 35510
L79090 35700
" />
<path d="M79090 35360
L78900 35550
" />
</g>
<g style="fill:#000000; fill-opacity:0.0; 
stroke:#000000; stroke-width:0; stroke-opacity:1; 
stroke-linecap:round; stroke-linejoin:round;">
</g>
<g style="fill:#000000; fill-opacity:0.0; 
stroke:#000000; stroke-width:100; stroke-opacity:1; 
stroke-linecap:round; stroke-linejoin:round;">
<rect x="69500" y="32100" width="2000" height="800" rx="0" />
</g>
<g style="fill:#000000; fill-opacity:0.0; 
stroke:#000000; stroke-width:60; stroke-opacity:1; 
stroke-linecap:round; stroke-linejoin:round;">
<path d="M71500 32500
L72000 32500
" />
<path d="M69500 32500
L69000 32500
" />
<path d="M70410 33500
L70250 33260
" />
<path d="M70130 33500
L70130 33000
L70320 33000
L70370 33020
L70390 33040
L70410 33090
L70410 33160
L70390 33210
L70370 33230
L70320 33260
L70130 33260
" />
<path d="M70580 33000
L70890 33000
L70720 33190
L70800 33190
L70840 33210
L70870 33230
L70890 33280
L70890 33400
L70870 33450
L70840 33470
L70800 33500
L70650 33500
L70610 33470
L70580 33450
" />
<path d="M70440 32700
L70160 32700
" />
<path d="M70300 32700
L70300 32200
L70250 32270
L70200 32320
L70160 32340
" />
<path d="M70660 32700
L70660 32200
" />
<path d="M70710 32510
L70850 32700
" />
<path d="M70850 32360
L70660 32550
" />
</g>
<g style="fill:#000000; fill-opacity:0.0; 
stroke:#000000; stroke-width:0; stroke-opacity:1; 
stroke-linecap:round; stroke-linejoin:round;">
</g>
<g style="fill:#000000; fill-opacity:0.0; 
stroke:#000000; stroke-width:100; stroke-opacity:1; 
stroke-linecap:round; stroke-linejoin:round;">
<rect x="35500" y="35100" width="2000" height="800" rx="0" />
</g>
<g style="fill:#000000; fill-opacity:0.0; 
stroke:#000000; stroke-width:60; stroke-opacity:1; 
stroke-linecap:round; stroke-linejoin:round;">
<path d="M37500 35500
L38000 35500
" />
<path d="M35500 35500
L35000 35500
" />
<path d="M36410 36500
L36250 36260
" />
<path d="M36130 36500
L36130 36000
L36320 36000
L36370 36020
L36390 36040
L36410 36090
L36410 36160
L36390 36210
L36370 36230
L36320 36260
L36130 36260
" />
<path d="M36890 36500
L36610 36500
" />
<path d="M36750 36500
L36750 36000
L36700 36070
L36650 36120
L36610 36140
" />
<path d="M36200 35700
L35920 35700
" />
<path d="M36060 35700
L36060 35200
L36010 35270
L35960 35320
L35920 35340
" />
<path d="M36510 35200
L36560 35200
L36610 35220
L36630 35240
L36660 35290
L36680 35390
L36680 35510
L36660 35600
L36630 35650
L36610 35670
L36560 35700
L36510 35700
L36470 35670
L36440 35650
L36420 35600
L36400 35510
L36400 35390
L36420 35290
L36440 35240
L36470 35220
L36510 35200
" />
<path d="M36900 35700
L36900 35200
" />
<path d="M36950 35510
L37090 35700
" />
<path d="M37090 35360
L36900 35550
" />
</g>
<g style="fill:#000000; fill-opacity:0.0; 
stroke:#000000; stroke-width:0; stroke-opacity:1; 
stroke-linecap:round; stroke-linejoin:round;">
</g>
<g style="fill:#000000; fill-opacity:0.0; 
stroke:#000000; stroke-width:60; stroke-opacity:1; 
stroke-linecap:round; stroke-linejoin:round;">
<polyline fill="none;"
points="58500,50500
58500,51000
59000,51000
58500,51500
58000,51000
58500,51000
" /> 
<path d="M58120 51720
L58070 51700
L58000 51700
L57930 51720
L57880 51770
L57860 51820
L57840 51910
L57840 51980
L57860 52080
L57880 52120
L57930 52170
L58000 52200
L58050 52200
L58120 52170
L58140 52150
L58140 51980
L58050 51980
" />
<path d="M58360 52200
L58360 51700
L58640 52200
L58640 51700
" />
<path d="M58880 52200
L58880 51700
L59000 51700
L59070 51720
L59120 51770
L59140 51820
L59160 51910
L59160 51980
L59140 52080
L59120 52120
L59070 52170
L59000 52200
L58880 52200
" />
</g>
<g style="fill:#000000; fill-opacity:0.0; 
stroke:#000000; stroke-width:0; stroke-opacity:1; 
stroke-linecap:round; stroke-linejoin:round;">
</g>
<g style="fill:#000000; fill-opacity:0.0; 
stroke:#000000; stroke-width:60; stroke-opacity:1; 
stroke-linecap:round; stroke-linejoin:round;">
<polyline fill="none;"
points="58200,28500
58500,28000
" /> 
<polyline fill="none;"
points="58500,29000
58500,28000
" /> 
<polyline fill="none;"
points="58500,28000
58800,28500
" /> 
<path d="M57620 27610
L58000 27610
" />
<path d="M57810 27800
L57810 27420
" />
<path d="M58500 27800
L58220 27800
" />
<path d="M58360 27800
L58360 27300
L58310 27370
L58260 27420
L58220 27440
" />
<path d="M58700 27340
L58720 27320
L58770 27300
L58890 27300
L58930 27320
L58960 27340
L58980 27390
L58980 27440
L58960 27510
L58670 27800
L58980 27800
" />
<path d="M59130 27300
L59290 27800
L59460 27300
" />
<path d="M52000 30500
L52000 29500
" />
<path d="M52000 29500
L58500 29500
" />
<path d="M58000 29500
L58500 29500
" />
<path d="M58500 29500
L64500 29500
" />
<path d="M64500 29500
L64500 30500
" />
<path d="M58500 29500
L58500 29000
" />
</g>
<g style="fill:#000000; fill-opacity:0.0; 
stroke:#000000; stroke-width:0; stroke-opacity:1; 
stroke-linecap:round; stroke-linejoin:round;">
</g>
<g style="fill:#000000; fill-opacity:1.0; 
stroke:#000000; stroke-width:100; stroke-opacity:1; 
stroke-linecap:round; stroke-linejoin:round;">
<circle cx="58500" cy="29500" r="200" /> 
</g>
<g style="fill:#000000; fill-opacity:1.0; 
stroke:#000000; stroke-width:60; stroke-opacity:1; 
stroke-linecap:round; stroke-linejoin:round;">
</g>
<g style="fill:#000000; fill-opacity:0.0; 
stroke:#000000; stroke-width:60; stroke-opacity:1; 
stroke-linecap:round; stroke-linejoin:round;">
<path d="M49000 32500
L47500 32500
" />
<path d="M44500 32500
L42000 32500
" />
<path d="M42000 32500
L42000 33500
" />
<path d="M67500 32500
L69000 32500
" />
<path d="M72000 32500
L73000 32500
" />
<path d="M73000 32500
L73000 33500
" />
<path d="M52000 34500
L52000 43000
" />
<path d="M64500 34500
L64500 43000
" />
<path d="M52000 47000
L52000 49500
" />
<path d="M52000 49500
L58500 49500
" />
<path d="M58000 49500
L58500 49500
" />
<path d="M58500 49500
L64500 49500
" />
<path d="M64500 49500
L64500 47000
" />
<path d="M58500 49500
L58500 50500
" />
</g>
<g style="fill:#000000; fill-opacity:0.0; 
stroke:#000000; stroke-width:0; stroke-opacity:1; 
stroke-linecap:round; stroke-linejoin:round;">
</g>
<g style="fill:#000000; fill-opacity:1.0; 
stroke:#000000; stroke-width:100; stroke-opacity:1; 
stroke-linecap:round; stroke-linejoin:round;">
<circle cx="58500" cy="49500" r="200" /> 
</g>
<g style="fill:#000000; fill-opacity:1.0; 
stroke:#000000; stroke-width:60; stroke-opacity:1; 
stroke-linecap:round; stroke-linejoin:round;">
</g>
<g style="fill:#000000; fill-opacity:0.0; 
stroke:#000000; stroke-width:60; stroke-opacity:1; 
stroke-linecap:round; stroke-linejoin:round;">
<path d="M42000 37500
L42000 40000
" />
<path d="M73000 37500
L73000 40000
" />
<path d="M67500 45000
L69500 45000
" />
<path d="M49000 45000
L46500 45000
" />
<path d="M37620 40270
L37620 39670
" />
<path d="M37620 39900
L37680 39870
L37790 39870
L37850 39900
L37880 39930
L37910 39990
L37910 40160
L37880 40210
L37850 40240
L37790 40270
L37680 40270
L37620 40240
" />
<path d="M38420 40270
L38420 39960
L38390 39900
L38330 39870
L38220 39870
L38160 39900
" />
<path d="M38420 40240
L38360 40270
L38220 40270
L38160 40240
L38130 40190
L38130 40130
L38160 40070
L38220 40040
L38360 40040
L38420 40010
" />
<path d="M38670 40240
L38730 40270
L38850 40270
L38900 40240
L38930 40190
L38930 40160
L38900 40100
L38850 40070
L38760 40070
L38700 40040
L38670 39990
L38670 39960
L38700 39900
L38760 39870
L38850 39870
L38900 39900
" />
<path d="M39420 40240
L39360 40270
L39250 40270
L39190 40240
L39160 40190
L39160 39960
L39190 39900
L39250 39870
L39360 39870
L39420 39900
L39450 39960
L39450 40010
L39160 40070
" />
<path d="M39700 40270
L39700 39870
" />
<path d="M39700 39990
L39730 39930
L39760 39900
L39820 39870
L39870 39870
" />
<path d="M40070 40270
L40070 39870
" />
<path d="M40070 39670
L40040 39700
L40070 39730
L40100 39700
L40070 39670
L40070 39730
" />
<path d="M40620 39870
L40620 40360
L40590 40410
L40560 40440
L40510 40470
L40420 40470
L40360 40440
" />
<path d="M40620 40240
L40560 40270
L40450 40270
L40390 40240
L40360 40210
L40330 40160
L40330 39990
L40360 39930
L40390 39900
L40450 39870
L40560 39870
L40620 39900
" />
<path d="M40900 40270
L40900 39670
" />
<path d="M41160 40270
L41160 39960
L41130 39900
L41070 39870
L40990 39870
L40930 39900
L40900 39930
" />
<path d="M41360 39870
L41590 39870
" />
<path d="M41440 39670
L41440 40190
L41470 40240
L41530 40270
L41590 40270
" />
</g>
<g style="fill:#000000; fill-opacity:0.0; 
stroke:#000000; stroke-width:100; stroke-opacity:1; 
stroke-linecap:round; stroke-linejoin:round;">
<polyline fill="none;"
points="42000,40000
41700,39460
37250,39460
37250,40000
37250,40540
41700,40540
42000,40000
" /> 
</g>
<g style="fill:#000000; fill-opacity:0.0; 
stroke:#000000; stroke-width:60; stroke-opacity:1; 
stroke-linecap:round; stroke-linejoin:round;">
<path d="M73500 40270
L73500 39670
" />
<path d="M73500 39900
L73560 39870
L73670 39870
L73730 39900
L73760 39930
L73790 39990
L73790 40160
L73760 40210
L73730 40240
L73670 40270
L73560 40270
L73500 40240
" />
<path d="M74300 40270
L74300 39960
L74270 39900
L74210 39870
L74100 39870
L74040 39900
" />
<path d="M74300 40240
L74240 40270
L74100 40270
L74040 40240
L74010 40190
L74010 40130
L74040 40070
L74100 40040
L74240 40040
L74300 40010
" />
<path d="M74550 40240
L74610 40270
L74730 40270
L74780 40240
L74810 40190
L74810 40160
L74780 40100
L74730 40070
L74640 40070
L74580 40040
L74550 39990
L74550 39960
L74580 39900
L74640 39870
L74730 39870
L74780 39900
" />
<path d="M75300 40240
L75240 40270
L75130 40270
L75070 40240
L75040 40190
L75040 39960
L75070 39900
L75130 39870
L75240 39870
L75300 39900
L75330 39960
L75330 40010
L75040 40070
" />
<path d="M75670 40270
L75610 40240
L75580 40190
L75580 39670
" />
<path d="M76120 40240
L76060 40270
L75950 40270
L75890 40240
L75860 40190
L75860 39960
L75890 39900
L75950 39870
L76060 39870
L76120 39900
L76150 39960
L76150 40010
L75860 40070
" />
<path d="M76320 39870
L76550 39870
" />
<path d="M76400 40270
L76400 39760
L76430 39700
L76490 39670
L76550 39670
" />
<path d="M76660 39870
L76890 39870
" />
<path d="M76740 39670
L76740 40190
L76770 40240
L76830 40270
L76890 40270
" />
</g>
<g style="fill:#000000; fill-opacity:0.0; 
stroke:#000000; stroke-width:100; stroke-opacity:1; 
stroke-linecap:round; stroke-linejoin:round;">
<polyline fill="none;"
points="73000,40000
73300,40540
77170,40540
77170,40000
77170,39460
73300,39460
73000,40000
" /> 
</g>
<g style="fill:#000000; fill-opacity:0.0; 
stroke:#000000; stroke-width:60; stroke-opacity:1; 
stroke-linecap:round; stroke-linejoin:round;">
<path d="M42700 45270
L42700 44670
" />
<path d="M42700 44900
L42760 44870
L42870 44870
L42930 44900
L42960 44930
L42990 44990
L42990 45160
L42960 45210
L42930 45240
L42870 45270
L42760 45270
L42700 45240
" />
<path d="M43500 45270
L43500 44960
L43470 44900
L43410 44870
L43300 44870
L43240 44900
" />
<path d="M43500 45240
L43440 45270
L43300 45270
L43240 45240
L43210 45190
L43210 45130
L43240 45070
L43300 45040
L43440 45040
L43500 45010
" />
<path d="M43750 45240
L43810 45270
L43930 45270
L43980 45240
L44010 45190
L44010 45160
L43980 45100
L43930 45070
L43840 45070
L43780 45040
L43750 44990
L43750 44960
L43780 44900
L43840 44870
L43930 44870
L43980 44900
" />
<path d="M44500 45240
L44440 45270
L44330 45270
L44270 45240
L44240 45190
L44240 44960
L44270 44900
L44330 44870
L44440 44870
L44500 44900
L44530 44960
L44530 45010
L44240 45070
" />
<path d="M44870 45270
L44810 45240
L44780 45190
L44780 44670
" />
<path d="M45320 45240
L45260 45270
L45150 45270
L45090 45240
L45060 45190
L45060 44960
L45090 44900
L45150 44870
L45260 44870
L45320 44900
L45350 44960
L45350 45010
L45060 45070
" />
<path d="M45520 44870
L45750 44870
" />
<path d="M45600 45270
L45600 44760
L45630 44700
L45690 44670
L45750 44670
" />
<path d="M45860 44870
L46090 44870
" />
<path d="M45940 44670
L45940 45190
L45970 45240
L46030 45270
L46090 45270
" />
</g>
<g style="fill:#000000; fill-opacity:0.0; 
stroke:#000000; stroke-width:100; stroke-opacity:1; 
stroke-linecap:round; stroke-linejoin:round;">
<polyline fill="none;"
points="46500,45000
46200,44460
42330,44460
42330,45000
42330,45540
46200,45540
46500,45000
" /> 
</g>
<g style="fill:#000000; fill-opacity:0.0; 
stroke:#000000; stroke-width:60; stroke-opacity:1; 
stroke-linecap:round; stroke-linejoin:round;">
<path d="M70000 45270
L70000 44670
" />
<path d="M70000 44900
L70060 44870
L70170 44870
L70230 44900
L70260 44930
L70290 44990
L70290 45160
L70260 45210
L70230 45240
L70170 45270
L70060 45270
L70000 45240
" />
<path d="M70800 45270
L70800 44960
L70770 44900
L70710 44870
L70600 44870
L70540 44900
" />
<path d="M70800 45240
L70740 45270
L70600 45270
L70540 45240
L70510 45190
L70510 45130
L70540 45070
L70600 45040
L70740 45040
L70800 45010
" />
<path d="M71050 45240
L71110 45270
L71230 45270
L71280 45240
L71310 45190
L71310 45160
L71280 45100
L71230 45070
L71140 45070
L71080 45040
L71050 44990
L71050 44960
L71080 44900
L71140 44870
L71230 44870
L71280 44900
" />
<path d="M71800 45240
L71740 45270
L71630 45270
L71570 45240
L71540 45190
L71540 44960
L71570 44900
L71630 44870
L71740 44870
L71800 44900
L71830 44960
L71830 45010
L71540 45070
" />
<path d="M72080 45270
L72080 44870
" />
<path d="M72080 44990
L72110 44930
L72140 44900
L72200 44870
L72250 44870
" />
<path d="M72450 45270
L72450 44870
" />
<path d="M72450 44670
L72420 44700
L72450 44730
L72480 44700
L72450 44670
L72450 44730
" />
<path d="M73000 44870
L73000 45360
L72970 45410
L72940 45440
L72890 45470
L72800 45470
L72740 45440
" />
<path d="M73000 45240
L72940 45270
L72830 45270
L72770 45240
L72740 45210
L72710 45160
L72710 44990
L72740 44930
L72770 44900
L72830 44870
L72940 44870
L73000 44900
" />
<path d="M73280 45270
L73280 44670
" />
<path d="M73540 45270
L73540 44960
L73510 44900
L73450 44870
L73370 44870
L73310 44900
L73280 44930
" />
<path d="M73740 44870
L73970 44870
" />
<path d="M73820 44670
L73820 45190
L73850 45240
L73910 45270
L73970 45270
" />
</g>
<g style="fill:#000000; fill-opacity:0.0; 
stroke:#000000; stroke-width:100; stroke-opacity:1; 
stroke-linecap:round; stroke-linejoin:round;">
<polyline fill="none;"
points="69500,45000
69800,45540
74250,45540
74250,45000
74250,44460
69800,44460
69500,45000
" /> 
</g>
<g style="fill:#000000; fill-opacity:0.0; 
stroke:#000000; stroke-width:60; stroke-opacity:1; 
stroke-linecap:round; stroke-linejoin:round;">
<path d="M38000 35500
L39000 35500
" />
<path d="M76000 35500
L77000 35500
" />
<path d="M35000 35500
L34000 35500
" />
<path d="M80000 35500
L81000 35500
" />
<path d="M33240 35600
L33530 35600
" />
<path d="M33190 35770
L33390 35170
L33590 35770
" />
</g>
<g style="fill:#000000; fill-opacity:0.0; 
stroke:#000000; stroke-width:100; stroke-opacity:1; 
stroke-linecap:round; stroke-linejoin:round;">
<polyline fill="none;"
points="34000,35500
33700,34960
32900,34960
32900,35500
32900,36040
33700,36040
34000,35500
" /> 
</g>
<g style="fill:#000000; fill-opacity:0.0; 
stroke:#000000; stroke-width:60; stroke-opacity:1; 
stroke-linecap:round; stroke-linejoin:round;">
<path d="M81700 35460
L81790 35490
L81820 35510
L81850 35570
L81850 35660
L81820 35710
L81790 35740
L81730 35770
L81500 35770
L81500 35170
L81700 35170
L81760 35200
L81790 35230
L81820 35290
L81820 35340
L81790 35400
L81760 35430
L81700 35460
L81500 35460
" />
</g>
<g style="fill:#000000; fill-opacity:0.0; 
stroke:#000000; stroke-width:100; stroke-opacity:1; 
stroke-linecap:round; stroke-linejoin:round;">
<polyline fill="none;"
points="81000,35500
81300,36040
82190,36040
82190,35500
82190,34960
81300,34960
81000,35500
" /> 
</g> 
</svg>
